<svg xmlns="http://www.w3.org/2000/svg" width="132.5" height="21.62" viewBox="0 0 132.5 21.62"><title>icon-res1-logo</title><g><g><path d="M91.84 3.18A10.7 10.7 0 0 0 88.46.86a10.46 10.46 0 0 0-8.3 0 10.8 10.8 0 0 0-3.36 2.32 11 11 0 0 0-2.27 3.46 10.72 10.72 0 0 0-.8 3.74h4.34a6.12 6.12 0 0 1 .48-2 6.83 6.83 0 0 1 1.36-2 6.4 6.4 0 0 1 2-1.4 5.85 5.85 0 0 1 2.45-.5 5.74 5.74 0 0 1 2.4.52 6.47 6.47 0 0 1 2 1.4 6.66 6.66 0 0 1 1.33 2 6.57 6.57 0 0 1 0 5 6.47 6.47 0 0 1-1.34 2 6.55 6.55 0 0 1-2 1.4 5.48 5.48 0 0 1-.68.25v4.56a10 10 0 0 0 2.4-.7 10.65 10.65 0 0 0 3.4-2.32 11.22 11.22 0 0 0 2.28-3.45A10.6 10.6 0 0 0 95 10.9a10.7 10.7 0 0 0-.85-4.26 11.2 11.2 0 0 0-2.3-3.46"/><path d="M111.43 13.55L102.23.4h-5.18v21.14h3.57V6.14l10.8 15.4h3.84V.4h-3.83v13.15zM121.93 17.6v-4.5h6.24V9.03h-6.24V4.27h10.57V.37h-14.95v21.1h14.95V17.6h-10.57zM0 9.47h4q4 0 4 3.24v.82q0 3.24-3.23 3.24L6.4 19.2 8 21.6H6l-3.17-4.86H1.6v4.86H0zm1.6 5.67H4q2.42 0 2.42-1.62v-.8q0-1.63-2.42-1.63H1.6zM16.48 20v1.62h-3.23q-4 0-4-3.24v-2.43q0-3.24 4-3.24t4 2.44v.8q0 2.44-4 2.44h-2.42q0 1.62 2.42 1.62zm-5.63-3.24h2.42q2.42 0 2.37-1.22t-2.4-1.22q-2.42 0-2.4 1.22zM22.7 14.33q-2.42 0-2.42 1.2 0 .8 2.42.8 4 0 4 2.44 0 2.85-4 2.85t-4-2.43h1.62q0 .8 2.42.8t2.42-1.16q0-1.27-2.42-.9-4 0-4-2.42 0-2.8 4-2.8t4 2.42h-1.62q0-.8-2.42-.8"/><path d="M29.73 11.1h-1.6V9.46h1.6zm0 10.52h-1.6v-8.9h1.6zM35.38 21.62q-4 0-4-4v-1.67q0-3.24 4-3.24h2.42V9.48h1.6v12.15zm2.42-7.3h-2.42q-2.38 0-2.38 1.63v2.43Q33 20 35.38 20h2.42zM48.3 20v1.62h-3.23q-4 0-4-3.24v-2.43q0-3.24 4-3.24t4 2.44v.8q0 2.44-4 2.44h-2.42q0 1.62 2.42 1.62zm-5.63-3.24h2.42q2.4 0 2.36-1.22t-2.4-1.22q-2.42 0-2.4 1.22zM52.34 21.62h-1.62v-8.9h4q4 0 4 3.23v5.67h-1.54v-5.67q0-1.62-2.42-1.62h-2.42zM61.55 9.47h1.62v3.24h2.42v1.63h-2.44v4.05q0 1.62 2.42 1.62h.8v1.62h-.8q-4 0-4-3.24v-4.05h-1.64V12.7h1.6zM69.62 11.1H68V9.46h1.6zm0 10.52H68v-8.9h1.6zM72 14.33V12.7h3.23q4 0 4 3.25v5.67h-4q-4 0-4-2.43v-.82q0-2.43 4-2.43h2.47q0-1.62-2.42-1.62zm5.63 3.24h-2.38q-2.42 0-2.37 1.22t2.4 1.2h2.42zM79.5 9.47h3.23V20h1.62v1.62h-3.23V11.1H79.5V9.46z"/></g></g></svg>