<svg xmlns="http://www.w3.org/2000/svg" width="132.35" height="28.83" viewBox="0 0 132.35 28.83"><title>icon-ahd-logo</title><g><g><path d="M9.64 22.85l-4.5 5.76h11.48v-5.75H9.64zM20.23 19.26h9.4v9.35h-9.4zM0 7v21.6h.72L17.62 7H0zM33.3 28.6h13.56V17.8c0 5.77-5 10.76-13.58 10.8"/><path d="M20.2 9.33h.03v6.32h9.4V7H20.2V9.3zM16.62 19.9v-5.98l-4.68 5.98h4.68zM33.23 7c8.68 0 13.64 5 13.64 10.8V7zM33.23 10.4v14.8c6.8 0 9.8-3.5 9.8-7.4s-3-7.33-9.8-7.4"/><path d="M33.17 28.6zM128.6 28.7h1.18v-7.23h2.57v-1H126v1h2.57zm-9.85 0h1.18v-6.8l3.74 6.8h1.5v-8.27H124v6.65l-3.65-6.65h-1.6zm-6.16 0h4.62v-1h-3.45V24.9h3.14v-1h-3.13v-2.45h3.45v-1h-4.63zm-10.88 0h1.18v-7.16l2.74 7.15h1.16l2.74-7.16v7.15h1.18v-8.27h-2l-2.55 6.87-2.6-6.87h-2zm-6.18 0h4.63v-1h-3.45V24.9h3.14v-1h-3.14v-2.45h3.45v-1h-4.63zm-1.88-8a6.26 6.26 0 0 0-2.43-.42 4.12 4.12 0 0 0-4.37 4.24 4.07 4.07 0 0 0 4.36 4.3 7.52 7.52 0 0 0 2.52-.36v-4.3H90.8v1h1.75v2.5a4.78 4.78 0 0 1-1.33.15 3.08 3.08 0 0 1-3.12-3.22 3.08 3.08 0 0 1 3.17-3.23 3.8 3.8 0 0 1 2.27.57zm-9.72 4.93h-3.3l1.65-4.1zm-5.75 3.05h1.23l.84-2.08h4l.84 2.08h1.3l-3.5-8.26h-1.2zm-7.3 0h1.18v-6.8l3.74 6.8h1.52v-8.25h-1.18v6.65l-3.65-6.65H70.9zm-3.34-3.05h-3.3l1.63-4.1zm-5.75 3.05H63l.84-2.08h4l.84 2.08h1.3l-3.5-8.26h-1.16zm-9.9 0h1.2v-7.14l2.73 7.15H57l2.74-7.16v7.15h1.18v-8.27H59l-2.55 6.87-2.6-6.87h-2zM0 0h131.72v.63H0z"/></g></g></svg>