<svg xmlns="http://www.w3.org/2000/svg" width="45" height="45" viewBox="0 0 45 45"><defs><clipPath id="a"><path fill="none" d="M0 0h45v45H0z"/></clipPath></defs><title>icon-phone</title><g><g fill="#e6cf9f" clip-path="url(#a)"><path d="M42.46 3.43A.75.75 0 0 0 41.4 4.5a7.2 7.2 0 0 1 0 10.15.75.75 0 1 0 1.06 1.06 8.7 8.7 0 0 0 0-12.27M39.3 5.13a.75.75 0 0 0-1.06 1.07 4.92 4.92 0 0 1 0 7 .75.75 0 1 0 1.06 1.06 6.43 6.43 0 0 0 0-9.08M3.6 4.5a.75.75 0 0 0-1.06-1.07 8.7 8.7 0 0 0 0 12.3.75.75 0 1 0 1.06-1.08 7.2 7.2 0 0 1 0-10.16M6.76 4.93a.75.75 0 0 0-1.06 0 6.43 6.43 0 0 0 0 9.07.75.75 0 1 0 1.06-1.06 4.93 4.93 0 0 1 0-7 .75.75 0 0 0 0-1.06M24 39.75a1.5 1.5 0 1 1-1.5-1.5 1.5 1.5 0 0 1 1.5 1.5M33.75 34.5h-22.5V6h22.5zM22.5 42.75a3 3 0 1 1 3-3 3 3 0 0 1-3 3m-3-40.5h3a.75.75 0 0 1 0 1.5h-3a.75.75 0 0 1 0-1.5m5.25 0h.75a.75.75 0 0 1 0 1.5h-.75a.75.75 0 0 1 0-1.5M31.95 0h-18.9a3.3 3.3 0 0 0-3.3 3.3v38.4a3.3 3.3 0 0 0 3.3 3.3h18.9a3.3 3.3 0 0 0 3.3-3.3V3.3a3.3 3.3 0 0 0-3.3-3.3"/></g></g></svg>